<svg width="127" height="44" viewBox="0 0 127 44" fill="none" xmlns="http://www.w3.org/2000/svg">
<path d="M0.441356 39.1632C2.11808 38.195 3.31068 37.4157 4.01915 36.8253C4.72763 36.2349 5.19994 35.5972 5.4361 34.9124C5.67226 34.2275 5.79034 33.2357 5.79034 31.9368V20.1761H10.8914V31.9368C10.8914 33.9205 10.6434 35.55 10.1475 36.8253C9.65152 38.1005 8.80136 39.2341 7.59695 40.2259C6.39254 41.2414 4.64497 42.3159 2.35424 43.4495L0.441356 39.1632ZM12.5208 33.3892C10.726 33.3892 9.40356 32.7751 8.55339 31.5471C7.72684 30.3191 7.31356 28.7014 7.31356 26.6941V20.1761H10.8914V26.3753C10.8914 26.8476 11.0449 27.249 11.3519 27.5797C11.6589 27.8867 12.0485 28.0402 12.5208 28.0402H14.0086C14.2448 28.0402 14.3629 28.1583 14.3629 28.3944V33.0349C14.3629 33.2711 14.2448 33.3892 14.0086 33.3892H12.5208ZM14.0039 33.3892C13.7678 33.3892 13.6497 33.2711 13.6497 33.0349V28.3944C13.6497 28.1583 13.7678 28.0402 14.0039 28.0402H25.2687C25.9063 28.0402 26.4495 27.8276 26.8982 27.4026C27.3469 26.9775 27.5712 26.4107 27.5712 25.7022C27.5712 24.852 27.1698 24.179 26.3668 23.6831L18.3256 18.4049V14.5437L25.4104 7.03391L28.8819 10.3283L23.6392 15.819L29.5195 19.6802C30.5114 20.3178 31.2789 21.1798 31.8221 22.2661C32.3889 23.3288 32.6722 24.5096 32.6722 25.8085C32.6722 27.1782 32.3298 28.4416 31.645 29.5988C30.9837 30.756 30.0863 31.677 28.9528 32.3619C27.8192 33.0467 26.5676 33.3892 25.1978 33.3892H14.0039ZM14.5353 11.4619L20.7699 4.87306L23.2141 7.35272L16.9795 13.9415L14.5353 11.4619ZM38.0077 38.9507C40.1095 38.0533 41.6681 37.3212 42.6836 36.7544C43.7227 36.1876 44.4312 35.6563 44.809 35.1603C45.1869 34.6644 45.3758 34.074 45.3758 33.3892H43.0733C41.6563 33.3892 40.3574 33.0703 39.1766 32.4327C37.9959 31.7951 37.0512 30.9213 36.3427 29.8114C35.6579 28.6778 35.3155 27.4144 35.3155 26.021C35.3155 24.6041 35.6579 23.3052 36.3427 22.1244C37.0512 20.9436 37.9959 20.0108 39.1766 19.3259C40.3574 18.6175 41.6563 18.2632 43.0733 18.2632C44.443 18.2632 45.6946 18.6175 46.8282 19.3259C47.9617 20.0108 48.8473 20.9436 49.485 22.1244C50.1226 23.3052 50.4414 24.6041 50.4414 26.021V31.1929C50.4414 33.3892 50.099 35.1603 49.4141 36.5064C48.7529 37.8762 47.6665 39.057 46.1551 40.0488C44.6673 41.0643 42.4829 42.1979 39.6017 43.4495L38.0077 38.9507ZM43.0733 28.359H45.3758V25.9856C45.3758 25.3007 45.1514 24.734 44.7027 24.2853C44.2777 23.8366 43.7345 23.6122 43.0733 23.6122C42.3884 23.6122 41.8098 23.8366 41.3375 24.2853C40.8888 24.734 40.6644 25.3007 40.6644 25.9856C40.6644 26.6705 40.8888 27.2372 41.3375 27.6859C41.8098 28.1346 42.3884 28.359 43.0733 28.359ZM50.1934 28.0402H51.8938C52.1299 28.0402 52.248 28.1583 52.248 28.3944V33.0349C52.248 33.2711 52.1299 33.3892 51.8938 33.3892H50.1934V28.0402ZM51.8838 33.3892C51.6476 33.3892 51.5296 33.2711 51.5296 33.0349V28.3944C51.5296 28.1583 51.6476 28.0402 51.8838 28.0402H59.8541C60.4918 28.0402 61.0349 27.8276 61.4836 27.4026C61.9323 26.9775 62.1567 26.4107 62.1567 25.7022C62.1567 24.852 61.7552 24.179 60.9523 23.6831L52.9465 18.4049V14.5437L59.9958 7.03391L63.5028 10.3283L58.2246 15.819L64.105 19.6802C65.0969 20.3178 65.8644 21.1798 66.4075 22.2661C66.9743 23.3288 67.2577 24.5096 67.2577 25.8085C67.2577 27.1782 66.9153 28.4416 66.2304 29.5988C65.5692 30.756 64.6718 31.677 63.5382 32.3619C62.4046 33.0467 61.153 33.3892 59.7833 33.3892H51.8838ZM68.8872 33.3892C67.0924 33.3892 65.6872 32.7633 64.6718 31.5117C63.6799 30.2364 63.184 28.6306 63.184 26.6941V25.8085H67.2577V26.3753C67.2577 26.8476 67.4112 27.249 67.7182 27.5797C68.0252 27.8867 68.4149 28.0402 68.8872 28.0402H70.4104C70.6466 28.0402 70.7646 28.1583 70.7646 28.3944V33.0349C70.7646 33.2711 70.6466 33.3892 70.4104 33.3892H68.8872ZM70.0717 28.3944C70.0717 28.1583 70.1897 28.0402 70.4259 28.0402H72.7284C73.2008 28.0402 73.5904 27.8867 73.8974 27.5797C74.2044 27.249 74.3579 26.8476 74.3579 26.3753V20.1761H79.459V26.3753C79.459 26.8476 79.6125 27.249 79.9195 27.5797C80.2265 27.8867 80.6161 28.0402 81.0884 28.0402H83.391C83.6271 28.0402 83.7452 28.1583 83.7452 28.3944V33.0349C83.7452 33.2711 83.6271 33.3892 83.391 33.3892H81.0884C79.3409 33.3892 77.9475 32.8106 76.9084 31.6534C75.8221 32.8106 74.4288 33.3892 72.7284 33.3892H70.4259C70.1897 33.3892 70.0717 33.2711 70.0717 33.0349V28.3944ZM71.4178 36.4356H75.952V40.9698H71.4178V36.4356ZM77.794 36.4356H82.3637V40.9698H77.794V36.4356ZM83.3985 33.3892C83.1623 33.3892 83.0442 33.2711 83.0442 33.0349V28.3944C83.0442 28.1583 83.1623 28.0402 83.3985 28.0402H85.3113C85.76 28.0402 86.1379 27.8749 86.4449 27.5442C86.7755 27.2136 86.9408 26.824 86.9408 26.3753V19.1134H92.0064V26.6941C92.0064 27.8985 91.7112 29.0202 91.1208 30.0593C90.5304 31.0748 89.7275 31.8896 88.712 32.5036C87.6965 33.094 86.5748 33.3892 85.3468 33.3892H83.3985ZM87.0471 11.5327H91.5813V16.1024H87.0471V11.5327Z" fill="#5A30A7"/>
<rect x="99" y="7.38916" width="28" height="28" rx="7" fill="#5A30A7"/>
<path d="M106.822 22.9278C106.822 22.6752 106.844 22.3786 106.888 22.0381C106.932 21.6976 107.014 21.3132 107.135 20.8848C107.256 20.4454 107.437 19.9566 107.679 19.4184L109.706 20.1269C109.585 20.4674 109.48 20.7804 109.393 21.066C109.305 21.3406 109.239 21.5988 109.195 21.8404C109.151 22.0711 109.129 22.3017 109.129 22.5324C109.129 23.0706 109.25 23.51 109.491 23.8505C109.744 24.202 110.095 24.4601 110.546 24.6249C110.996 24.8006 111.518 24.8885 112.111 24.8885C112.792 24.8885 113.352 24.7951 113.792 24.6084C114.231 24.4326 114.572 24.1965 114.813 23.8999C115.055 23.6143 115.225 23.3013 115.324 22.9608C115.423 22.6093 115.472 22.2688 115.472 21.9393C115.472 21.4889 115.395 20.9562 115.242 20.3411C115.088 19.715 114.813 19.012 114.418 18.2321L116.543 17.3259C116.763 17.7104 116.966 18.1607 117.153 18.677C117.34 19.1822 117.488 19.7095 117.598 20.2587C117.718 20.8079 117.779 21.3296 117.779 21.8239C117.779 22.2633 117.724 22.7301 117.614 23.2244C117.504 23.7077 117.318 24.1855 117.054 24.6578C116.801 25.1301 116.455 25.553 116.016 25.9265C115.577 26.3109 115.033 26.6185 114.385 26.8492C113.737 27.0798 112.962 27.1952 112.062 27.1952C111.337 27.1952 110.656 27.1128 110.019 26.948C109.393 26.7942 108.838 26.5471 108.355 26.2066C107.882 25.8661 107.509 25.4212 107.234 24.872C106.96 24.3338 106.822 23.6857 106.822 22.9278ZM112.193 16.6669C111.853 16.6669 111.562 16.5516 111.32 16.3209C111.09 16.0902 110.974 15.8046 110.974 15.4641C110.974 15.1236 111.09 14.8325 111.32 14.5909C111.562 14.3492 111.853 14.2284 112.193 14.2284C112.523 14.2284 112.803 14.3492 113.034 14.5909C113.275 14.8325 113.396 15.1236 113.396 15.4641C113.396 15.8046 113.275 16.0902 113.034 16.3209C112.803 16.5516 112.523 16.6669 112.193 16.6669Z" fill="white"/>
</svg>
