<svg width="160" height="67" viewBox="0 0 160 67" fill="none" xmlns="http://www.w3.org/2000/svg">
<path d="M23.4414 47.7741C25.1181 46.8058 26.3107 46.0265 27.0192 45.4361C27.7276 44.8457 28.1999 44.2081 28.4361 43.5232C28.6723 42.8384 28.7903 41.8465 28.7903 40.5476V28.7869H33.8914V40.5476C33.8914 42.5314 33.6434 44.1608 33.1475 45.4361C32.6515 46.7114 31.8014 47.8449 30.5969 48.8368C29.3925 49.8523 27.645 50.9268 25.3542 52.0603L23.4414 47.7741ZM35.5208 42C33.726 42 32.4036 41.386 31.5534 40.158C30.7268 38.9299 30.3136 37.3123 30.3136 35.3049V28.7869H33.8914V34.9861C33.8914 35.4584 34.0449 35.8599 34.3519 36.1905C34.6589 36.4975 35.0485 36.651 35.5208 36.651H37.0086C37.2448 36.651 37.3629 36.7691 37.3629 37.0053V41.6458C37.3629 41.8819 37.2448 42 37.0086 42H35.5208ZM37.0039 42C36.7678 42 36.6497 41.8819 36.6497 41.6458V37.0053C36.6497 36.7691 36.7678 36.651 37.0039 36.651H48.2687C48.9063 36.651 49.4495 36.4385 49.8982 36.0134C50.3469 35.5883 50.5712 35.0215 50.5712 34.3131C50.5712 33.4629 50.1698 32.7898 49.3668 32.2939L41.3256 27.0158V23.1546L48.4104 15.6447L51.8819 18.9392L46.6392 24.4298L52.5195 28.291C53.5114 28.9286 54.2789 29.7906 54.8221 30.8769C55.3889 31.9397 55.6722 33.1205 55.6722 34.4193C55.6722 35.789 55.3298 37.0525 54.645 38.2097C53.9837 39.3668 53.0863 40.2879 51.9528 40.9727C50.8192 41.6576 49.5676 42 48.1978 42H37.0039ZM37.5353 20.0727L43.7699 13.4839L46.2141 15.9636L39.9795 22.5524L37.5353 20.0727ZM61.0077 47.5615C63.1095 46.6641 64.6681 45.932 65.6836 45.3653C66.7227 44.7985 67.4312 44.2671 67.809 43.7712C68.1869 43.2753 68.3758 42.6849 68.3758 42H66.0733C64.6563 42 63.3574 41.6812 62.1766 41.0436C60.9959 40.4059 60.0512 39.5321 59.3427 38.4222C58.6579 37.2886 58.3155 36.0252 58.3155 34.6319C58.3155 33.2149 58.6579 31.916 59.3427 30.7353C60.0512 29.5545 60.9959 28.6216 62.1766 27.9368C63.3574 27.2283 64.6563 26.8741 66.0733 26.8741C67.443 26.8741 68.6946 27.2283 69.8282 27.9368C70.9617 28.6216 71.8473 29.5545 72.485 30.7353C73.1226 31.916 73.4414 33.2149 73.4414 34.6319V39.8037C73.4414 42 73.099 43.7712 72.4141 45.1173C71.7529 46.487 70.6665 47.6678 69.1551 48.6597C67.6673 49.6751 65.4829 50.8087 62.6017 52.0603L61.0077 47.5615ZM66.0733 36.9698H68.3758V34.5964C68.3758 33.9116 68.1514 33.3448 67.7027 32.8961C67.2777 32.4474 66.7345 32.2231 66.0733 32.2231C65.3884 32.2231 64.8098 32.4474 64.3375 32.8961C63.8888 33.3448 63.6644 33.9116 63.6644 34.5964C63.6644 35.2813 63.8888 35.8481 64.3375 36.2968C64.8098 36.7455 65.3884 36.9698 66.0733 36.9698ZM73.1934 36.651H74.8938C75.1299 36.651 75.248 36.7691 75.248 37.0053V41.6458C75.248 41.8819 75.1299 42 74.8938 42H73.1934V36.651ZM74.8838 42C74.6476 42 74.5296 41.8819 74.5296 41.6458V37.0053C74.5296 36.7691 74.6476 36.651 74.8838 36.651H82.8541C83.4918 36.651 84.0349 36.4385 84.4836 36.0134C84.9323 35.5883 85.1567 35.0215 85.1567 34.3131C85.1567 33.4629 84.7552 32.7898 83.9523 32.2939L75.9465 27.0158V23.1546L82.9958 15.6447L86.5028 18.9392L81.2246 24.4298L87.105 28.291C88.0969 28.9286 88.8644 29.7906 89.4075 30.8769C89.9743 31.9397 90.2577 33.1205 90.2577 34.4193C90.2577 35.789 89.9153 37.0525 89.2304 38.2097C88.5692 39.3668 87.6718 40.2879 86.5382 40.9727C85.4046 41.6576 84.153 42 82.7833 42H74.8838ZM91.8872 42C90.0924 42 88.6872 41.3742 87.6718 40.1225C86.6799 38.8473 86.184 37.2414 86.184 35.3049V34.4193H90.2577V34.9861C90.2577 35.4584 90.4112 35.8599 90.7182 36.1905C91.0252 36.4975 91.4149 36.651 91.8872 36.651H93.4104C93.6466 36.651 93.7646 36.7691 93.7646 37.0053V41.6458C93.7646 41.8819 93.6466 42 93.4104 42H91.8872ZM93.4259 42C93.1897 42 93.0717 41.8819 93.0717 41.6458V37.0053C93.0717 36.7691 93.1897 36.651 93.4259 36.651H95.3388C95.7875 36.651 96.1653 36.4857 96.4723 36.1551C96.803 35.8245 96.9683 35.4348 96.9683 34.9861V27.7242H102.034V35.3049C102.034 36.5093 101.739 37.6311 101.148 38.6702C100.558 39.6856 99.7549 40.5004 98.7395 41.1144C97.724 41.7048 96.6022 42 95.3742 42H93.4259ZM97.0745 20.1436H101.609V24.7132H97.0745V20.1436Z" fill="#2D2D2D"/>
<rect x="108" y="16" width="28" height="28" rx="7" fill="#5A30A7"/>
<path d="M115.822 31.5387C115.822 31.286 115.844 30.9895 115.888 30.649C115.932 30.3084 116.014 29.924 116.135 29.4956C116.256 29.0563 116.437 28.5675 116.679 28.0292L118.706 28.7377C118.585 29.0782 118.48 29.3913 118.393 29.6769C118.305 29.9515 118.239 30.2096 118.195 30.4512C118.151 30.6819 118.129 30.9126 118.129 31.1432C118.129 31.6815 118.25 32.1208 118.491 32.4613C118.744 32.8128 119.095 33.0709 119.546 33.2357C119.996 33.4115 120.518 33.4993 121.111 33.4993C121.792 33.4993 122.352 33.406 122.792 33.2192C123.231 33.0435 123.572 32.8073 123.813 32.5108C124.055 32.2252 124.225 31.9121 124.324 31.5716C124.423 31.2201 124.472 30.8796 124.472 30.5501C124.472 30.0998 124.395 29.567 124.242 28.9519C124.088 28.3258 123.813 27.6228 123.418 26.843L125.543 25.9368C125.763 26.3212 125.966 26.7716 126.153 27.2878C126.34 27.7931 126.488 28.3203 126.598 28.8695C126.718 29.4187 126.779 29.9405 126.779 30.4348C126.779 30.8741 126.724 31.341 126.614 31.8352C126.504 32.3185 126.318 32.7963 126.054 33.2687C125.801 33.741 125.455 34.1639 125.016 34.5373C124.577 34.9218 124.033 35.2293 123.385 35.46C122.737 35.6907 121.962 35.806 121.062 35.806C120.337 35.806 119.656 35.7236 119.019 35.5588C118.393 35.4051 117.838 35.1579 117.355 34.8174C116.882 34.4769 116.509 34.0321 116.234 33.4829C115.96 32.9446 115.822 32.2966 115.822 31.5387ZM121.193 25.2777C120.853 25.2777 120.562 25.1624 120.32 24.9317C120.09 24.7011 119.974 24.4155 119.974 24.075C119.974 23.7345 120.09 23.4434 120.32 23.2017C120.562 22.9601 120.853 22.8393 121.193 22.8393C121.523 22.8393 121.803 22.9601 122.034 23.2017C122.275 23.4434 122.396 23.7345 122.396 24.075C122.396 24.4155 122.275 24.7011 122.034 24.9317C121.803 25.1624 121.523 25.2777 121.193 25.2777Z" fill="white"/>
<rect y="63" width="160" height="4" fill="#5A30A7"/>
</svg>
