<svg width="112" height="44" viewBox="0 0 112 44" fill="none" xmlns="http://www.w3.org/2000/svg">
<path d="M0.441356 39.0421C2.11808 38.0739 3.31068 37.2946 4.01915 36.7042C4.72763 36.1138 5.19994 35.4761 5.4361 34.7913C5.67226 34.1064 5.79034 33.1146 5.79034 31.8157V20.055H10.8914V31.8157C10.8914 33.7994 10.6434 35.4289 10.1475 36.7042C9.65152 37.9794 8.80136 39.113 7.59695 40.1048C6.39254 41.1203 4.64497 42.1948 2.35424 43.3284L0.441356 39.0421ZM12.5208 33.2681C10.726 33.2681 9.40356 32.6541 8.55339 31.426C7.72684 30.198 7.31356 28.5803 7.31356 26.573V20.055H10.8914V26.2542C10.8914 26.7265 11.0449 27.128 11.3519 27.4586C11.6589 27.7656 12.0485 27.9191 12.5208 27.9191H14.0086C14.2448 27.9191 14.3629 28.0372 14.3629 28.2733V32.9138C14.3629 33.15 14.2448 33.2681 14.0086 33.2681H12.5208ZM14.0039 33.2681C13.7678 33.2681 13.6497 33.15 13.6497 32.9138V28.2733C13.6497 28.0372 13.7678 27.9191 14.0039 27.9191H25.2687C25.9063 27.9191 26.4495 27.7065 26.8982 27.2815C27.3469 26.8564 27.5712 26.2896 27.5712 25.5811C27.5712 24.7309 27.1698 24.0579 26.3668 23.562L18.3256 18.2838V14.4226L25.4104 6.91281L28.8819 10.2072L23.6392 15.6979L29.5195 19.5591C30.5114 20.1967 31.2789 21.0587 31.8221 22.145C32.3889 23.2077 32.6722 24.3885 32.6722 25.6874C32.6722 27.0571 32.3298 28.3206 31.645 29.4777C30.9837 30.6349 30.0863 31.5559 28.9528 32.2408C27.8192 32.9256 26.5676 33.2681 25.1978 33.2681H14.0039ZM14.5353 11.3408L20.7699 4.75197L23.2141 7.23163L16.9795 13.8204L14.5353 11.3408ZM38.0077 38.8296C40.1095 37.9322 41.6681 37.2001 42.6836 36.6333C43.7227 36.0665 44.4312 35.5352 44.809 35.0393C45.1869 34.5433 45.3758 33.9529 45.3758 33.2681H43.0733C41.6563 33.2681 40.3574 32.9493 39.1766 32.3116C37.9959 31.674 37.0512 30.8002 36.3427 29.6903C35.6579 28.5567 35.3155 27.2933 35.3155 25.8999C35.3155 24.483 35.6579 23.1841 36.3427 22.0033C37.0512 20.8225 37.9959 19.8897 39.1766 19.2048C40.3574 18.4964 41.6563 18.1421 43.0733 18.1421C44.443 18.1421 45.6946 18.4964 46.8282 19.2048C47.9617 19.8897 48.8473 20.8225 49.485 22.0033C50.1226 23.1841 50.4414 24.483 50.4414 25.8999V31.0718C50.4414 33.2681 50.099 35.0393 49.4141 36.3854C48.7529 37.7551 47.6665 38.9359 46.1551 39.9277C44.6673 40.9432 42.4829 42.0768 39.6017 43.3284L38.0077 38.8296ZM43.0733 28.2379H45.3758V25.8645C45.3758 25.1796 45.1514 24.6129 44.7027 24.1642C44.2777 23.7155 43.7345 23.4911 43.0733 23.4911C42.3884 23.4911 41.8098 23.7155 41.3375 24.1642C40.8888 24.6129 40.6644 25.1796 40.6644 25.8645C40.6644 26.5494 40.8888 27.1161 41.3375 27.5648C41.8098 28.0135 42.3884 28.2379 43.0733 28.2379ZM50.1934 27.9191H51.8938C52.1299 27.9191 52.248 28.0372 52.248 28.2733V32.9138C52.248 33.15 52.1299 33.2681 51.8938 33.2681H50.1934V27.9191ZM51.8838 33.2681C51.6476 33.2681 51.5296 33.15 51.5296 32.9138V28.2733C51.5296 28.0372 51.6476 27.9191 51.8838 27.9191H59.8541C60.4918 27.9191 61.0349 27.7065 61.4836 27.2815C61.9323 26.8564 62.1567 26.2896 62.1567 25.5811C62.1567 24.7309 61.7552 24.0579 60.9523 23.562L52.9465 18.2838V14.4226L59.9958 6.91281L63.5028 10.2072L58.2246 15.6979L64.105 19.5591C65.0969 20.1967 65.8644 21.0587 66.4075 22.145C66.9743 23.2077 67.2577 24.3885 67.2577 25.6874C67.2577 27.0571 66.9153 28.3206 66.2304 29.4777C65.5692 30.6349 64.6718 31.5559 63.5382 32.2408C62.4046 32.9256 61.153 33.2681 59.7833 33.2681H51.8838ZM68.8872 33.2681C67.0924 33.2681 65.6872 32.6422 64.6718 31.3906C63.6799 30.1154 63.184 28.5095 63.184 26.573V25.6874H67.2577V26.2542C67.2577 26.7265 67.4112 27.128 67.7182 27.4586C68.0252 27.7656 68.4149 27.9191 68.8872 27.9191H70.4104C70.6466 27.9191 70.7646 28.0372 70.7646 28.2733V32.9138C70.7646 33.15 70.6466 33.2681 70.4104 33.2681H68.8872ZM70.4259 33.2681C70.1897 33.2681 70.0717 33.15 70.0717 32.9138V28.2733C70.0717 28.0372 70.1897 27.9191 70.4259 27.9191H72.3388C72.7875 27.9191 73.1653 27.7538 73.4723 27.4232C73.803 27.0925 73.9683 26.7029 73.9683 26.2542V18.9923H79.0339V26.573C79.0339 27.7774 78.7387 28.8991 78.1483 29.9382C77.5579 30.9537 76.7549 31.7685 75.7395 32.3825C74.724 32.9729 73.6022 33.2681 72.3742 33.2681H70.4259ZM74.0745 11.4116H78.6088V15.9813H74.0745V11.4116Z" fill="white"/>
<rect x="83.7593" y="7.26807" width="28" height="28" rx="7" fill="white"/>
<path d="M91.5815 22.8067C91.5815 22.5541 91.6035 22.2575 91.6474 21.917C91.6913 21.5765 91.7737 21.1921 91.8946 20.7637C92.0154 20.3243 92.1966 19.8355 92.4383 19.2973L94.4648 20.0058C94.344 20.3463 94.2397 20.6593 94.1518 20.9449C94.0639 21.2195 93.998 21.4777 93.9541 21.7193C93.9101 21.95 93.8882 22.1806 93.8882 22.4113C93.8882 22.9495 94.009 23.3889 94.2506 23.7294C94.5033 24.0809 94.8548 24.339 95.3051 24.5038C95.7555 24.6795 96.2772 24.7674 96.8704 24.7674C97.5514 24.7674 98.1116 24.674 98.5509 24.4873C98.9903 24.3116 99.3308 24.0754 99.5724 23.7788C99.8141 23.4932 99.9843 23.1802 100.083 22.8397C100.182 22.4882 100.231 22.1477 100.231 21.8182C100.231 21.3678 100.155 20.8351 100.001 20.22C99.847 19.5939 99.5724 18.8909 99.177 18.111L101.302 17.2048C101.522 17.5893 101.725 18.0396 101.912 18.5559C102.099 19.0612 102.247 19.5884 102.357 20.1376C102.478 20.6868 102.538 21.2085 102.538 21.7028C102.538 22.1422 102.483 22.609 102.373 23.1033C102.264 23.5866 102.077 24.0644 101.813 24.5367C101.561 25.009 101.215 25.4319 100.775 25.8054C100.336 26.1898 99.7921 26.4974 99.1441 26.7281C98.496 26.9587 97.7216 27.0741 96.8209 27.0741C96.096 27.0741 95.415 26.9917 94.7779 26.8269C94.1518 26.6731 93.5971 26.426 93.1138 26.0855C92.6415 25.745 92.268 25.3001 91.9934 24.7509C91.7188 24.2127 91.5815 23.5646 91.5815 22.8067ZM96.9527 16.5458C96.6122 16.5458 96.3211 16.4305 96.0795 16.1998C95.8488 15.9691 95.7335 15.6835 95.7335 15.343C95.7335 15.0025 95.8488 14.7115 96.0795 14.4698C96.3211 14.2282 96.6122 14.1073 96.9527 14.1073C97.2823 14.1073 97.5623 14.2282 97.793 14.4698C98.0347 14.7115 98.1555 15.0025 98.1555 15.343C98.1555 15.6835 98.0347 15.9691 97.793 16.1998C97.5623 16.4305 97.2823 16.5458 96.9527 16.5458Z" fill="#5A30A7"/>
</svg>
