<svg width="29" height="48" viewBox="0 0 29 48" fill="none" xmlns="http://www.w3.org/2000/svg">
<path d="M4.34908 40C3.77791 40 3.25616 39.8627 2.78385 39.5881C2.31153 39.3025 1.93807 38.9236 1.66347 38.4512C1.38887 37.9679 1.25157 37.4462 1.25157 36.886V28.8951H3.62413V36.7377C3.62413 36.9574 3.69553 37.1441 3.83832 37.2979C3.98111 37.4407 4.15686 37.5121 4.36556 37.5121H5.27175C5.38159 37.5121 5.43651 37.567 5.43651 37.6769V39.8352C5.43651 39.9451 5.38159 40 5.27175 40H4.34908ZM10.5448 40.033C9.8967 40.033 9.30905 39.8737 8.78181 39.5551C8.26556 39.2256 7.85915 38.7863 7.56258 38.2371C7.266 37.6878 7.11772 37.0837 7.11772 36.4247V35.3537H6.0962V32.9976H10.5448C11.2038 32.9976 11.8079 33.1459 12.3571 33.4425C12.9063 33.7391 13.3402 34.151 13.6588 34.6782C13.9883 35.1945 14.153 35.7766 14.153 36.4247C14.153 37.0727 13.9883 37.6769 13.6588 38.2371C13.3402 38.7863 12.9008 39.2256 12.3407 39.5551C11.7915 39.8737 11.1928 40.033 10.5448 40.033ZM5.27239 40C5.16255 40 5.10763 39.9451 5.10763 39.8352V37.6769C5.10763 37.567 5.16255 37.5121 5.27239 37.5121H6.35982C6.56851 37.5121 6.74426 37.4407 6.88705 37.2979C7.04083 37.1441 7.11772 36.9574 7.11772 36.7377V35.6832H9.01248V36.886C9.01248 37.7867 8.77632 38.5336 8.304 39.1268C7.84267 39.7089 7.19461 40 6.35982 40H5.27239ZM10.5448 37.5451C10.8633 37.5451 11.1269 37.4407 11.3356 37.232C11.5443 37.0123 11.6487 36.7432 11.6487 36.4247C11.6487 36.1171 11.5443 35.8645 11.3356 35.6668C11.1269 35.4581 10.8633 35.3537 10.5448 35.3537H9.45733V36.4247C9.45733 36.7432 9.55619 37.0123 9.7539 37.232C9.9626 37.4407 10.2262 37.5451 10.5448 37.5451ZM16.6461 42.5868C17.6237 42.1694 18.3486 41.8289 18.8209 41.5652C19.3042 41.3016 19.6338 41.0545 19.8095 40.8238C19.9852 40.5931 20.0731 40.3185 20.0731 40H19.0022C18.3431 40 17.739 39.8517 17.1898 39.5551C16.6406 39.2586 16.2012 38.8522 15.8717 38.3359C15.5532 37.8087 15.3939 37.221 15.3939 36.573C15.3939 35.9139 15.5532 35.3098 15.8717 34.7606C16.2012 34.2114 16.6406 33.7775 17.1898 33.459C17.739 33.1294 18.3431 32.9647 19.0022 32.9647C19.6392 32.9647 20.2214 33.1294 20.7486 33.459C21.2759 33.7775 21.6878 34.2114 21.9844 34.7606C22.2809 35.3098 22.4292 35.9139 22.4292 36.573V38.9785C22.4292 40 22.2699 40.8238 21.9514 41.4499C21.6438 42.087 21.1386 42.6362 20.4356 43.0975C19.7436 43.5698 18.7276 44.0971 17.3875 44.6792L16.6461 42.5868ZM19.0022 37.6604H20.0731V36.5565C20.0731 36.2379 19.9688 35.9743 19.7601 35.7656C19.5624 35.5569 19.3097 35.4526 19.0022 35.4526C18.6836 35.4526 18.4145 35.5569 18.1948 35.7656C17.9861 35.9743 17.8818 36.2379 17.8818 36.5565C17.8818 36.875 17.9861 37.1386 18.1948 37.3473C18.4145 37.556 18.6836 37.6604 19.0022 37.6604ZM22.3139 37.5121H23.1047C23.2146 37.5121 23.2695 37.567 23.2695 37.6769V39.8352C23.2695 39.9451 23.2146 40 23.1047 40H22.3139V37.5121ZM23.1001 40C22.9903 40 22.9353 39.9451 22.9353 39.8352V37.6769C22.9353 37.567 22.9903 37.5121 23.1001 37.5121H24.8795C25.0882 37.5121 25.264 37.4352 25.4068 37.2814C25.5605 37.1277 25.6374 36.9464 25.6374 36.7377V33.3601H27.9935V36.886C27.9935 37.4462 27.8562 37.9679 27.5816 38.4512C27.307 38.9236 26.9336 39.3025 26.4612 39.5881C25.9889 39.8627 25.4672 40 24.896 40H23.1001ZM22.8859 29.8342H25.0113V31.9596H22.8859V29.8342ZM25.8681 29.8342H27.977V31.9596H25.8681V29.8342Z" fill="#2D2D2D"/>
<path d="M6.56166 22.8998C5.60604 22.8998 4.72182 22.6582 3.909 22.1749C3.09617 21.7025 2.44811 21.06 1.96481 20.2471C1.49249 19.4343 1.25634 18.5501 1.25634 17.5945V14.5134H3.6289V17.4627C3.6289 17.9899 3.76071 18.4787 4.02433 18.9291C4.28795 19.3794 4.64493 19.7364 5.09528 20C5.54563 20.2636 6.03442 20.3954 6.56166 20.3954C7.09988 20.3954 7.59416 20.2636 8.04451 20C8.50584 19.7364 8.86832 19.3794 9.13194 18.9291C9.39556 18.4787 9.52736 17.9899 9.52736 17.4627V13.8544H11.8999V17.5945C11.8999 18.5501 11.6583 19.4343 11.175 20.2471C10.7027 21.06 10.0546 21.7025 9.23079 22.1749C8.41797 22.6582 7.52826 22.8998 6.56166 22.8998ZM5.45776 12.3221H7.58318V14.4311H5.45776V12.3221Z" fill="#2D2D2D"/>
</svg>
